<?xml version="1.0" encoding="utf-8"?>
<!DOCTYPE svg PUBLIC "-//W3C//DTD SVG 1.0//EN" "http://www.w3.org/TR/2001/REC-SVG-20010904/DTD/svg10.dtd">
<svg version="1.0" xmlns="http://www.w3.org/2000/svg" width="256px" height="256px" viewBox="0 0 256 256" preserveAspectRatio="xMidYMid meet">
 <g fill="#000000">
  <path d="M54.9 180.3 c-1.9 -0.2 -6.4 -1.8 -10 -3.6 -11.4 -5.7 -16.2 -15.9 -15.7 -33.3 l0.3 -9.9 15 0 15 0 0.6 6.5 c0.8 10 4.1 14.7 7.5 10.9 1.8 -2 1.9 -4.5 2.4 -37.3 l0.5 -35.1 16.8 -0.3 16.7 -0.2 0 3.4 0 3.5 4.4 -1.9 c10.2 -4.6 15.9 -5 66.7 -5 l47.9 0 0 3.7 c0 3 -1.4 5.5 -8.6 14.9 l-8.6 11.3 -13.2 0.3 -13.1 0.3 -0.3 4.1 -0.3 4.2 14.3 0.4 c11.3 0.4 15.1 0.9 18.3 2.4 11.7 5.6 15.5 11.8 15.5 25.7 0 14.6 -4.6 23.8 -14.4 28.9 -8.7 4.4 -13.8 4.8 -72.6 4.8 -30.5 0 -57.7 0.5 -60.5 1 -4.9 0.9 -17.6 1 -24.6 0.3z m90.1 -34.7 l0 -4.3 -14.3 -0.5 c-12.2 -0.5 -15.3 -1 -20.5 -3.1 l-6.2 -2.5 0 7.4 0 7.4 20.5 0 20.5 0 0 -4.4z m43.4 3 c4.6 -1.9 5.4 -3.5 2.6 -5.8 -1.5 -1.2 -3.9 -1.8 -7.1 -1.8 l-4.9 0 0 4.5 c0 4.3 0.1 4.5 3 4.5 1.7 0 4.6 -0.6 6.4 -1.4z m-43.6 -35.8 l-0.3 -4.3 -6.6 0 c-5.2 0 -7.2 0.4 -8.8 1.9 -2 1.8 -2 2.1 -0.5 3.7 1.9 2.1 3.9 2.6 11.2 2.8 l5.3 0.1 -0.3 -4.2z"/>
 </g>
 <g fill="#ffffff">
  <path d="M116.7 254.9 c-29 -2.3 -57.1 -15.5 -78.6 -37 -18.6 -18.5 -31.2 -42.5 -35.7 -67.9 -1.9 -11 -1.9 -33 0 -44 9.3 -52.2 51.4 -94.3 103.6 -103.6 11 -1.9 33 -1.9 44 0 52.2 9.3 94.3 51.4 103.6 103.6 0.8 4.8 1.5 14.4 1.5 22 0 27.1 -7 49.9 -22.2 72 -25.9 37.9 -69.6 58.5 -116.2 54.9z m-30.8 -81.2 c11.3 -5.5 15.1 -13.7 15.1 -32.6 0 -7.8 -0.3 -10.1 -1.6 -11.2 -0.8 -0.7 -2.7 -3.5 -4.1 -6.3 -3.5 -7 -3.6 -18.7 -0.1 -26.6 1.4 -3 3.2 -6.1 4.1 -6.9 1.1 -0.8 1.7 -2.8 1.7 -5.3 l0 -3.9 -13.7 0.3 -13.8 0.3 -0.5 35.1 c-0.5 33.1 -0.6 35.3 -2.4 37.3 -1.5 1.6 -2.9 2.1 -5.4 1.9 -5 -0.4 -7.4 -4.1 -8.1 -12.5 l-0.6 -6.8 -12 0 -12 0 -0.3 6.8 c-0.4 8.4 1.6 15.7 6 22.3 2.5 3.8 4.8 5.6 9.7 8.1 7.6 3.7 10.5 4.2 22.5 3.7 7.6 -0.3 10 -0.9 15.5 -3.7z m113.2 0.9 c12.5 -2.7 19.5 -8.1 22.9 -17.9 4 -11.4 1.4 -24.4 -6.1 -29.8 -7.2 -5.2 -10.8 -6.2 -23.7 -6.7 l-12.3 -0.4 0.3 8.8 0.3 8.9 6.1 0.5 c7.8 0.6 9.6 2.1 9.2 7.4 -0.3 3.6 -0.8 4.3 -3.8 5.8 -3.2 1.6 -7.5 1.8 -45.7 1.8 l-42.3 0 0 2.1 c0 3.6 -5.9 14.6 -9.5 17.8 l-3.6 3.1 50.8 0 c39.8 0 52.2 -0.3 57.4 -1.4z m-22.9 -47.3 l0.3 -21.8 13.1 -0.3 13.2 -0.3 8.6 -11.3 c4.7 -6.2 8.6 -11.6 8.6 -11.9 0 -0.4 -20.2 -0.7 -44.9 -0.7 -47.4 0 -53.6 0.5 -63.6 4.9 -5.1 2.3 -10.5 7.5 -13 12.7 -2.7 5.7 -2.6 18.5 0.3 24.1 5.1 9.8 14.7 14.2 32.9 15 l12.3 0.6 0 -9 0 -9 -8 -0.5 c-9.3 -0.5 -12 -2.2 -12 -7.3 0 -5.6 2.7 -7 13.9 -7 l9.6 0 0.3 21.8 0.2 21.7 14 0 14 0 0.2 -21.7z"/>
 </g>
</svg>